<svg width="102" height="102" viewBox="0 0 102 102" fill="none" xmlns="http://www.w3.org/2000/svg">
<circle cx="51" cy="51" r="51" fill="#0F172A"/>
<path d="M34.4375 50.1875C33.8542 50.0208 33.1458 49.9271 32.3125 49.9062C31.5625 49.9062 30.8125 50 30.0625 50.1875C29.3333 50.3542 28.75 50.6458 28.3125 51.0625V57.75V57.8125V64H24.5312V46.375H27.9062L28.3125 48.1875C28.625 47.875 28.9479 47.5938 29.2812 47.3438C29.6354 47.0938 30.0417 46.8958 30.5 46.75C30.9583 46.5833 31.5 46.4583 32.125 46.375C32.75 46.2917 33.5208 46.25 34.4375 46.25V50.1875ZM47.9375 64.6875H45.4062L55 39.0312H57.5312L47.9375 64.6875ZM74.8125 58.6562C74.8125 59.3646 74.9062 59.9167 75.0938 60.3125C75.2812 60.7083 75.5417 61.0104 75.875 61.2188C76.2292 61.4271 76.6146 61.5625 77.0312 61.625C77.4688 61.6667 77.9271 61.6875 78.4062 61.6875V64C78.1354 64.0417 77.8646 64.0729 77.5938 64.0938C77.3646 64.1146 77.0833 64.125 76.75 64.125C76.4375 64.1458 76.125 64.1562 75.8125 64.1562C75.5 64.1562 75.1771 64.1458 74.8438 64.125C74.5312 64.1042 74.2604 64.0729 74.0312 64.0312C73.3229 63.9062 72.7708 63.6042 72.375 63.125C71.9792 62.625 71.6771 62.0833 71.4688 61.5C71.2812 60.8958 71.1562 60.3125 71.0938 59.75C71.0521 59.1875 71.0312 58.75 71.0312 58.4375V48.9375H68.7188V46.375H71.0312V41.375H74.8125V46.375H77.625V48.9375H74.8125V58.6562Z" fill="white"/>
</svg>
